<?xml version="1.0" encoding="UTF-8"?>
<svg version="1.1" xmlns="http://www.w3.org/2000/svg" width="300" height="269">
<path d="M0 0 C0.71481023 -0.00085442 1.42962047 -0.00170885 2.16609162 -0.00258917 C4.55518602 -0.00423294 6.94420982 0.00125932 9.33329773 0.00672913 C11.04829914 0.00701126 12.76330066 0.00685275 14.478302 0.00628662 C19.13076069 0.00599968 23.7831936 0.01187984 28.4356463 0.01886058 C33.29900497 0.02511119 38.16236424 0.02569927 43.02572632 0.02688599 C52.233717 0.02999426 61.44169581 0.03820087 70.64968127 0.04823548 C81.13327208 0.05941224 91.61686346 0.06491101 102.10045874 0.06993091 C123.66465063 0.08038389 145.22883183 0.09797359 166.79301453 0.12025452 C165.18615285 4.14901059 163.51093673 8.1377985 161.79301453 12.12025452 C161.13301453 12.12025452 160.47301453 12.12025452 159.79301453 12.12025452 C159.53520203 12.9800592 159.27738953 13.83986389 159.01176453 14.72572327 C157.75092817 18.2374758 156.18200622 21.21906738 154.29301453 24.43275452 C153.68457703 25.48076233 153.07613953 26.52877014 152.44926453 27.60853577 C150.79301453 30.12025452 150.79301453 30.12025452 148.79301453 31.12025452 C148.08765261 32.77091704 147.42771034 34.44115254 146.79301453 36.12025452 C142.64831888 44.47522644 137.86297647 52.50484904 133.16801453 60.55775452 C132.57198425 61.5844928 131.97595398 62.61123108 131.36186218 63.66908264 C128.31786768 68.89013682 125.22136836 74.0636047 121.99613953 79.17494202 C121.394953 80.14375305 120.79376648 81.11256409 120.17436218 82.11073303 C119.03805859 83.93649523 117.8825959 85.75053056 116.70463562 87.54969788 C113.22263521 93.19119243 112.24968659 97.18072962 112.83329773 103.81581116 C112.79301453 106.12025452 112.79301453 106.12025452 110.35551453 108.74525452 C104.04268553 111.18178501 98.37243539 112.20064005 91.93363953 109.37416077 C87.11006955 106.54867543 82.98949884 102.78362655 78.79301453 99.12025452 C76.97167332 97.54354098 75.14828903 95.96926346 73.32279968 94.39735413 C72.12463402 93.36352738 70.93008368 92.32549063 69.73979187 91.28260803 C67.06907224 88.96362473 64.46509992 86.90164478 61.51176453 84.93275452 C58.86168632 83.16603571 57.3224988 81.34548688 55.37504578 78.86634827 C52.55338622 75.75207217 49.16370084 73.29120568 45.88676453 70.67494202 C42.55105983 67.96841436 39.42386617 65.05893825 36.29301453 62.12025452 C32.41871204 58.49033373 28.50396816 55.00273577 24.35551453 51.68275452 C19.23570075 47.58390067 14.46764226 43.17430863 9.73857117 38.63612366 C7.07056533 36.10428399 4.48646823 33.83223328 1.37504578 31.85853577 C0.52297546 31.28490295 -0.32909485 30.71127014 -1.20698547 30.12025452 C-1.20698547 29.46025452 -1.20698547 28.80025452 -1.20698547 28.12025452 C-1.86698547 28.12025452 -2.52698547 28.12025452 -3.20698547 28.12025452 C-3.20698547 27.46025452 -3.20698547 26.80025452 -3.20698547 26.12025452 C-3.86698547 26.12025452 -4.52698547 26.12025452 -5.20698547 26.12025452 C-5.82993781 30.27327008 -6.03091761 33.98533586 -5.20698547 38.12025452 C-2.36474718 41.52751608 1.11290452 43.68959698 4.79301453 46.12025452 C6.25294466 47.34398253 7.69265601 48.59246852 9.10551453 49.87025452 C11.19752957 51.72702289 13.28451254 53.50888085 15.48051453 55.24525452 C17.79301453 57.12025452 17.79301453 57.12025452 20.23051453 59.62025452 C22.72979784 62.21971576 22.72979784 62.21971576 25.85551453 64.12025452 C28.79301453 66.12025452 28.79301453 66.12025452 30.66801453 68.49525452 C32.82791086 71.16336176 35.00980478 73.04094475 37.73051453 75.12025452 C41.34101635 77.94128801 44.59158904 80.8367412 47.79301453 84.12025452 C50.76724132 86.81627982 53.77646376 89.47173609 56.79301453 92.12025452 C48.89716753 101.99006326 38.991917 109.99334989 29.4407196 118.20375061 C25.22438306 121.84054978 21.10922206 125.56679593 17.04301453 129.37025452 C12.23477195 133.86760033 7.29137724 138.08696803 2.13285828 142.18275452 C-0.25685689 144.09019319 -0.25685689 144.09019319 -2.39057922 146.37025452 C-4.20698547 148.12025452 -4.20698547 148.12025452 -6.20698547 148.12025452 C-5.87698547 151.42025452 -5.54698547 154.72025452 -5.20698547 158.12025452 C-1.50603166 156.26977761 0.00588608 154.98935733 2.79301453 152.12025452 C3.84757349 151.23570002 4.91046151 150.36100147 5.98051453 149.49525452 C8.80337579 147.42856156 8.80337579 147.42856156 9.79301453 145.12025452 C10.78301453 145.12025452 11.77301453 145.12025452 12.79301453 145.12025452 C12.79301453 144.46025452 12.79301453 143.80025452 12.79301453 143.12025452 C14.42734207 141.64256234 16.12777821 140.23756132 17.85551453 138.87025452 C18.8532489 138.0697467 19.85098328 137.26923889 20.87895203 136.44447327 C22.32141296 135.29398499 22.32141296 135.29398499 23.79301453 134.12025452 C26.19638576 132.17212937 28.50423702 130.20558513 30.79301453 128.12025452 C30.79301453 127.46025452 30.79301453 126.80025452 30.79301453 126.12025452 C31.65410828 125.7425592 32.51520203 125.36486389 33.40238953 124.97572327 C37.21808143 122.88764302 39.95044769 120.44373354 43.04301453 117.43275452 C48.5363941 112.12025452 48.5363941 112.12025452 50.79301453 112.12025452 C50.79301453 111.46025452 50.79301453 110.80025452 50.79301453 110.12025452 C51.45301453 110.12025452 52.11301453 110.12025452 52.79301453 110.12025452 C52.79301453 109.46025452 52.79301453 108.80025452 52.79301453 108.12025452 C54.43754578 106.71791077 54.43754578 106.71791077 56.60551453 105.18275452 C58.70962011 103.68420209 60.60541924 102.32181472 62.36723328 100.42884827 C63.79301453 99.12025452 63.79301453 99.12025452 66.79301453 99.12025452 C66.79301453 99.78025452 66.79301453 100.44025452 66.79301453 101.12025452 C67.67086609 101.49923889 67.67086609 101.49923889 68.56645203 101.88587952 C71.04775403 103.26147852 72.51188675 104.77756955 74.41801453 106.87025452 C81.50517497 114.12898495 89.92928218 119.05383441 100.23051453 119.37025452 C104.67749235 119.26346603 108.55812378 118.4814694 112.79301453 117.12025452 C113.12301453 116.46025452 113.45301453 115.80025452 113.79301453 115.12025452 C118.37616348 111.35897465 122.83418524 111.72957466 128.46879578 111.82728577 C129.39395493 111.83153061 130.31911407 111.83577545 131.27230835 111.84014893 C134.21701083 111.85689459 137.16102012 111.8945393 140.10551453 111.93275452 C142.10615566 111.94780667 144.10680756 111.96149414 146.10746765 111.97377014 C151.0029156 112.00678468 155.89784767 112.05853876 160.79301453 112.12025452 C159.36433355 126.79696903 156.40034976 141.18701427 153.5565033 155.641922 C152.90222161 158.97377311 152.25416244 162.30683416 151.60551453 165.63978577 C150.34028898 172.13438063 149.06905902 178.62777716 147.79301453 185.12025452 C128.16455976 186.06549599 108.56398526 186.28575062 88.91801453 186.24525452 C87.40381369 186.24267423 85.88961284 186.24010065 84.37541199 186.23753357 C75.82053848 186.22147449 67.26578172 186.19128217 58.71099091 186.15070057 C54.16321012 186.129433 49.61546227 186.11381293 45.06764412 186.10337448 C38.02652851 186.08710022 30.98594832 186.05349093 23.9451313 185.98495102 C20.69413901 185.95340152 17.44364388 185.93158593 14.19248962 185.92524719 C10.60554516 185.91605395 7.02024072 185.87566419 3.43363953 185.82728577 C1.87578232 185.83316963 1.87578232 185.83316963 0.28645325 185.83917236 C-7.88842964 185.67492995 -14.55847524 183.43446207 -20.67964172 177.87416077 C-21.20429016 177.1509967 -21.7289386 176.42783264 -22.26948547 175.68275452 C-23.09126282 174.60187561 -23.09126282 174.60187561 -23.92964172 173.49916077 C-26.35816783 168.97630939 -26.33306401 164.03682577 -26.34742737 158.99249268 C-26.35313751 157.78561295 -26.35884766 156.57873322 -26.36473083 155.33528137 C-26.36584869 154.02448608 -26.36696655 152.7136908 -26.36811829 151.36317444 C-26.37275149 149.95818961 -26.37777682 148.55320602 -26.38316345 147.14822388 C-26.39623974 143.34231159 -26.40272287 139.5364169 -26.40717411 135.73048568 C-26.41011211 133.34939767 -26.41421824 130.96831439 -26.41867828 128.58722878 C-26.43233965 121.12761146 -26.44201338 113.66800506 -26.44588017 106.20837611 C-26.45035996 97.61509005 -26.46790984 89.02196311 -26.49688077 80.42872542 C-26.51853391 73.77373851 -26.52858636 67.11879625 -26.52992129 60.4637745 C-26.53096657 56.4946694 -26.53681532 52.52571417 -26.55474091 48.55664635 C-26.571285 44.82110869 -26.57334662 41.08583258 -26.5646019 37.35027122 C-26.56347118 35.3374325 -26.57713877 33.3246022 -26.59135437 31.31181335 C-26.54760736 21.76503718 -25.41083579 13.70273824 -19.20698547 6.12025452 C-13.10465327 0.74612425 -8.09097543 -0.00583344 0 0 Z " fill="#5F448B" transform="translate(45.20698547363281,54.87974548339844)"/>
<path d="M0 0 C3.5625 0.1875 3.5625 0.1875 5.5625 2.1875 C5.89607472 7.79762024 5.2529537 12.89262038 4.125 18.375 C3.92293945 19.40270508 3.92293945 19.40270508 3.71679688 20.45117188 C3.33924435 22.36471857 2.95120728 24.27618802 2.5625 26.1875 C0.98127378 33.97736445 -0.4620369 41.79505182 -1.9309082 49.60668945 C-2.31003842 51.61749461 -2.69122085 53.62791392 -3.07446289 55.63793945 C-3.62902905 58.54804145 -4.17653736 61.45939622 -4.72265625 64.37109375 C-4.89450943 65.26501328 -5.06636261 66.1589328 -5.24342346 67.0799408 C-6.06783357 71.51512274 -6.6411891 75.65205367 -6.4375 80.1875 C-4.56046387 80.20151855 -4.56046387 80.20151855 -2.64550781 80.21582031 C1.9990595 80.25570482 6.64296335 80.32145941 11.28710938 80.39501953 C13.29678827 80.42323807 15.30657834 80.44444821 17.31640625 80.45849609 C20.20630849 80.47991335 23.0948729 80.52655703 25.984375 80.578125 C26.88242859 80.57935364 27.78048218 80.58058228 28.70574951 80.58184814 C32.5646954 80.67237382 34.90400544 80.77597111 38.22363281 82.85058594 C39.5625 85.1875 39.5625 85.1875 39.52685547 87.99804688 C38.42754163 91.63385346 36.91492124 94.88291853 35.1328125 98.21875 C34.7866539 98.88321136 34.4404953 99.54767273 34.08384705 100.23226929 C32.95909174 102.38795498 31.82325723 104.53759398 30.6875 106.6875 C29.51386523 108.93128836 28.3432363 111.17662748 27.17280579 113.42208862 C26.39434721 114.91518853 25.61496041 116.40780487 24.8346405 117.89993286 C21.69025386 123.91764339 18.63554826 129.97670847 15.625 136.0625 C11.96878537 143.43216408 8.19690896 150.72935341 4.33691406 157.99414062 C0.59357782 165.0652167 -2.96953628 172.22155739 -6.52758789 179.38720703 C-9.57362775 185.50547517 -12.72051504 191.54642934 -16.0078125 197.5390625 C-17.32418566 199.97758983 -18.54963872 202.44039807 -19.75 204.9375 C-21.4375 208.1875 -21.4375 208.1875 -23.4375 209.1875 C-24.1260073 211.1800868 -24.78849525 213.18169909 -25.4375 215.1875 C-26.4568463 217.32339831 -27.5423065 219.42885049 -28.6875 221.5 C-29.24953125 222.54800781 -29.8115625 223.59601563 -30.390625 224.67578125 C-32.4375 227.1875 -32.4375 227.1875 -35.484375 228.23046875 C-38.4375 228.1875 -38.4375 228.1875 -40.296875 227.0078125 C-42.40690451 223.64043664 -41.6890345 220.02800237 -41.4375 216.1875 C-41.39496094 215.48367187 -41.35242188 214.77984375 -41.30859375 214.0546875 C-40.92796331 209.66528962 -40.07506385 205.47305089 -39.04956055 201.19067383 C-37.51286956 194.61770091 -36.19539398 188.02160026 -34.95703125 181.38671875 C-34.73931564 180.22550003 -34.52160004 179.06428131 -34.29728699 177.86787415 C-33.84289726 175.43718614 -33.39005706 173.00620799 -32.9387207 170.57495117 C-32.24825666 166.86563442 -31.54710353 163.15843412 -30.84570312 159.45117188 C-30.40298873 157.0756432 -29.96090916 154.69999611 -29.51953125 152.32421875 C-29.31020462 151.22510666 -29.10087799 150.12599457 -28.88520813 148.99357605 C-27.83848213 143.28783077 -27.20462412 137.98842519 -27.4375 132.1875 C-29.40541504 132.17348145 -29.40541504 132.17348145 -31.41308594 132.15917969 C-36.28126971 132.11930339 -41.14881995 132.05355087 -46.01660156 131.97998047 C-48.1232896 131.95175721 -50.2300838 131.93054944 -52.33691406 131.91650391 C-55.3657878 131.89509339 -58.39338331 131.8484524 -61.421875 131.796875 C-62.36367615 131.79564636 -63.30547729 131.79441772 -64.27581787 131.79315186 C-70.79565587 131.64715974 -70.79565587 131.64715974 -74.06860352 129.30322266 C-75.4375 127.1875 -75.4375 127.1875 -75.35546875 124.7265625 C-74.39852574 122.07969886 -73.26172859 119.93523936 -71.75 117.5625 C-69.57187609 114.122121 -67.56996834 110.62280728 -65.6328125 107.04296875 C-62.53795376 101.3330669 -59.29036753 95.72393185 -56 90.125 C-50.94766715 81.49708683 -45.92637904 72.8522584 -40.9375 64.1875 C-35.56820762 54.86553283 -30.16601613 45.56357815 -24.7355957 36.27709961 C-21.56010283 30.8418521 -18.4009456 25.39765361 -15.26171875 19.94140625 C-14.91497101 19.33896088 -14.56822327 18.7365155 -14.21096802 18.11581421 C-12.52053604 15.17811073 -10.83219183 12.23924774 -9.14648438 9.29882812 C-8.54513672 8.25275391 -7.94378906 7.20667969 -7.32421875 6.12890625 C-6.52310669 4.73200562 -6.52310669 4.73200562 -5.70581055 3.30688477 C-3.85261681 0.21014273 -3.85261681 0.21014273 0 0 Z " fill="#F5B955" transform="translate(241.4375,27.8125)"/>
<path d="M0 0 C0.33 0 0.66 0 1 0 C1.09931654 5.97732771 1.17167995 11.9541688 1.21972656 17.93212891 C1.23976836 19.96313857 1.26700947 21.99409106 1.30175781 24.02490234 C1.35060414 26.95424556 1.37304343 29.882822 1.390625 32.8125 C1.41127014 33.71178223 1.43191528 34.61106445 1.45318604 35.53759766 C1.45561566 42.45588528 -0.0739447 47.93178817 -4.9296875 53.0234375 C-5.57164062 53.46945313 -6.21359375 53.91546875 -6.875 54.375 C-7.51179688 54.83648437 -8.14859375 55.29796875 -8.8046875 55.7734375 C-13.81042364 58.5702367 -18.18520647 59.24111824 -23.875 59.125 C-25.02742187 59.10695312 -26.17984375 59.08890625 -27.3671875 59.0703125 C-28.67042969 59.03550781 -28.67042969 59.03550781 -30 59 C-28.63325641 55.45994272 -27.09526782 52.07321975 -25.390625 48.68359375 C-24.88273438 47.67103516 -24.37484375 46.65847656 -23.8515625 45.61523438 C-23.32304687 44.56658203 -22.79453125 43.51792969 -22.25 42.4375 C-21.73695313 41.41591797 -21.22390625 40.39433594 -20.6953125 39.34179688 C-20.18226563 38.32021484 -19.66921875 37.29863281 -19.140625 36.24609375 C-18.62822266 35.22499512 -18.11582031 34.20389648 -17.58789062 33.15185547 C-16.48893467 30.97050225 -15.38299558 28.79265829 -14.27148438 26.61767578 C-13.72298828 25.53856934 -13.17449219 24.45946289 -12.609375 23.34765625 C-12.10889648 22.36933838 -11.60841797 21.39102051 -11.09277344 20.38305664 C-9.86105845 18.13394806 -9.86105845 18.13394806 -10 16 C-9.58105469 15.60167969 -9.16210938 15.20335937 -8.73046875 14.79296875 C-6.32417209 12.29976295 -4.89427797 9.36047718 -3.3125 6.3125 C-2.83200195 5.40274414 -2.83200195 5.40274414 -2.34179688 4.47460938 C-1.55628516 2.98565434 -0.77747058 1.49316953 0 0 Z " fill="#5D4488" transform="translate(257,181)"/>
<path d="M0 0 C56.43 0 112.86 0 171 0 C169 5 169 5 167 6 C167.33 4.68 167.66 3.36 168 2 C112.56 2 57.12 2 0 2 C0 1.34 0 0.68 0 0 Z " fill="#463170" transform="translate(41,55)"/>
<path d="M0 0 C0.33 0.66 0.66 1.32 1 2 C-0.19427286 4.73650671 -1.44471772 7.35238083 -2.8125 10 C-3.18181641 10.73734375 -3.55113281 11.4746875 -3.93164062 12.234375 C-6.71898191 17.71898191 -6.71898191 17.71898191 -9 20 C-9.6875 18.1875 -9.6875 18.1875 -10 16 C-9.5875 15.5978125 -9.175 15.195625 -8.75 14.78125 C-6.31678388 12.30458359 -4.89658383 9.36492041 -3.3125 6.3125 C-2.99216797 5.70599609 -2.67183594 5.09949219 -2.34179688 4.47460938 C-1.55628516 2.98565434 -0.77747058 1.49316953 0 0 Z " fill="#725C8B" transform="translate(257,181)"/>
<path d="M0 0 C0.99 0.33 1.98 0.66 3 1 C2.38125 1.0825 1.7625 1.165 1.125 1.25 C-1.15721074 1.77689733 -1.15721074 1.77689733 -1.90625 3.84375 C-3.15289284 6.30141732 -4.49998538 7.51850661 -6.625 9.25 C-7.25664062 9.77078125 -7.88828125 10.2915625 -8.5390625 10.828125 C-9.02117188 11.21484375 -9.50328125 11.6015625 -10 12 C-8.23186986 6.37413137 -4.83239156 3.22159437 0 0 Z " fill="#523D7A" transform="translate(32,57)"/>
<path d="" fill="#E2DBEA" transform="translate(0,0)"/>
<path d="" fill="#E7E1EF" transform="translate(0,0)"/>
<path d="" fill="#E6E1EF" transform="translate(0,0)"/>
<path d="" fill="#E3D9ED" transform="translate(0,0)"/>
<path d="" fill="#E7E0EF" transform="translate(0,0)"/>
<path d="" fill="#E8E0EF" transform="translate(0,0)"/>
<path d="" fill="#90776F" transform="translate(0,0)"/>
</svg>
